<svg xmlns="http://www.w3.org/2000/svg" width="41" height="40" viewBox="0 0 41 40" fill="none"><mask id="mask0_1306_4959" style="mask-type:alpha" maskUnits="userSpaceOnUse" x="0" y="0" width="41" height="40"><rect x="0.719818" width="40" height="40" fill="#D9D9D9"></rect></mask><g mask="url(#mask0_1306_4959)"><path d="M12.3865 33.9746C11.7904 33.9746 11.2782 33.7603 10.8498 33.3317C10.4212 32.9033 10.2069 32.3911 10.2069 31.795V15.1283C10.2069 14.5322 10.4212 14.0199 10.8498 13.5913C11.2782 13.1629 11.7904 12.9488 12.3865 12.9488H29.0532C29.6493 12.9488 30.1615 13.1629 30.5898 13.5913C31.0184 14.0199 31.2327 14.5322 31.2327 15.1283V31.795C31.2327 32.3911 31.0184 32.9033 30.5898 33.3317C30.1615 33.7603 29.6493 33.9746 29.0532 33.9746H12.3865ZM19.694 31.8933H21.7457V30.2904H19.694V31.8933ZM19.6302 28.1113H21.8094C21.9164 27.2115 22.1691 26.4412 22.5677 25.8004C22.9661 25.1593 23.3865 24.5467 23.829 23.9625C24.2712 23.3622 24.6648 22.7657 25.0098 22.1729C25.3548 21.5804 25.5273 20.8889 25.5273 20.0983C25.5273 18.775 25.058 17.6429 24.1194 16.7021C23.1805 15.761 22.0473 15.2904 20.7198 15.2904C19.3965 15.2904 18.2644 15.761 17.3236 16.7021C16.3827 17.6429 15.9123 18.775 15.9123 20.0983C15.9123 20.8889 16.0848 21.5804 16.4298 22.1729C16.7748 22.7657 17.1684 23.3622 17.6107 23.9625C18.0532 24.5394 18.4736 25.1503 18.8719 25.795C19.2705 26.4394 19.5233 27.2115 19.6302 28.1113ZM12.0019 10.3204C12.1089 9.90514 12.3166 9.57694 12.6252 9.33583C12.9341 9.09472 13.314 8.97417 13.7648 8.97417H27.6748C28.1257 8.97417 28.5055 9.09472 28.8144 9.33583C29.123 9.57694 29.3308 9.90514 29.4377 10.3204H12.0019ZM13.7007 6.34625C13.8073 5.93097 14.0151 5.60278 14.324 5.36167C14.6329 5.12056 15.0127 5 15.4636 5H25.9761C26.4269 5 26.8068 5.12056 27.1157 5.36167C27.4245 5.60278 27.6323 5.93097 27.739 6.34625H13.7007Z" fill="#171717"></path></g></svg>