<svg xmlns="http://www.w3.org/2000/svg" width="41" height="40" viewBox="0 0 41 40" fill="none"><mask id="mask0_1306_4977" style="mask-type:alpha" maskUnits="userSpaceOnUse" x="0" y="0" width="41" height="40"><rect x="0.0531006" width="40" height="40" fill="#D9D9D9"></rect></mask><g mask="url(#mask0_1306_4977)"><path d="M18.801 32.0567L10.4035 27.1538C10.0366 26.9199 9.74643 26.6149 9.5331 26.2388C9.32005 25.8626 9.21352 25.4629 9.21352 25.0396V15.2404C9.21352 14.8171 9.32005 14.4174 9.5331 14.0413C9.74643 13.6651 10.0366 13.3601 10.4035 13.1263L18.8289 8.18917C19.2142 7.97472 19.6223 7.8675 20.0531 7.8675C20.4839 7.8675 20.892 7.97472 21.2773 8.18917L29.7027 13.1263C30.0696 13.3601 30.3598 13.6651 30.5731 14.0413C30.7862 14.4174 30.8927 14.8171 30.8927 15.2404V25.0396C30.8927 25.4629 30.7873 25.8626 30.5764 26.2388C30.3653 26.6149 30.0648 26.9199 29.6748 27.1538L21.2369 32.0567C20.8455 32.2853 20.438 32.3996 20.0144 32.3996C19.5907 32.3996 19.1863 32.2853 18.801 32.0567ZM5.0531 11.5321V7.43583C5.0531 6.77167 5.2931 6.19972 5.7731 5.72C6.25282 5.24 6.82477 5 7.48893 5H11.5852V6.41042H7.48893C7.18977 6.41042 6.94407 6.50653 6.75185 6.69875C6.55963 6.89097 6.46352 7.13667 6.46352 7.43583V11.5321H5.0531ZM11.5852 35H7.48893C6.82477 35 6.25282 34.76 5.7731 34.28C5.2931 33.8003 5.0531 33.2283 5.0531 32.5642V28.4679H6.46352V32.5642C6.46352 32.8633 6.55963 33.109 6.75185 33.3013C6.94407 33.4935 7.18977 33.5896 7.48893 33.5896H11.5852V35ZM28.521 35V33.5896H32.6173C32.9164 33.5896 33.1621 33.4935 33.3544 33.3013C33.5466 33.109 33.6427 32.8633 33.6427 32.5642V28.4679H35.0531V32.5642C35.0531 33.2283 34.8131 33.8003 34.3331 34.28C33.8534 34.76 33.2814 35 32.6173 35H28.521ZM33.6427 11.5321V7.43583C33.6427 7.13667 33.5466 6.89097 33.3544 6.69875C33.1621 6.50653 32.9164 6.41042 32.6173 6.41042H28.521V5H32.6173C33.2814 5 33.8534 5.24 34.3331 5.72C34.8131 6.19972 35.0531 6.77167 35.0531 7.43583V11.5321H33.6427ZM11.3202 14.2296L10.6302 14.6571V15.5512L19.3481 20.5013V30.7317L20.0531 31.1558L20.7581 30.7317V20.5013L29.4827 15.5512V14.6571L28.786 14.2296L20.0531 19.2713L11.3202 14.2296Z" fill="#171717"></path></g></svg>