<svg xmlns="http://www.w3.org/2000/svg" width="41" height="40" viewBox="0 0 41 40" fill="none"><mask id="mask0_1306_4947" style="mask-type:alpha" maskUnits="userSpaceOnUse" x="0" y="0" width="41" height="40"><rect x="0.386475" width="40" height="40" fill="#D9D9D9"></rect></mask><g mask="url(#mask0_1306_4947)"><path d="M20.0402 34.5192C19.6322 34.5192 19.2727 34.3817 18.9619 34.1067C18.6511 33.832 18.4956 33.4621 18.4956 32.9971C18.4956 32.7788 18.5426 32.5374 18.6365 32.2729C18.7304 32.0085 18.8713 31.7893 19.0594 31.6154L25.1973 25.4775L24.3715 24.6517L18.2386 30.7896C18.0505 30.9777 17.8379 31.1186 17.6006 31.2125C17.3631 31.3067 17.1226 31.3538 16.879 31.3538C16.4493 31.3538 16.0852 31.2047 15.7869 30.9067C15.4886 30.6086 15.3394 30.2447 15.3394 29.815C15.3394 29.5586 15.3918 29.3082 15.4965 29.0638C15.6012 28.819 15.7337 28.6166 15.894 28.4563L22.0319 22.3184L21.209 21.4959L15.0715 27.6238C14.9048 27.7904 14.6974 27.9261 14.4494 28.0309C14.2016 28.1356 13.9527 28.1879 13.7027 28.1879C13.2797 28.1879 12.9174 28.0374 12.6161 27.7363C12.3149 27.4349 12.1644 27.0727 12.1644 26.6496C12.1644 26.406 12.2113 26.1656 12.3052 25.9284C12.3994 25.6911 12.5405 25.4785 12.7286 25.2904L18.4815 19.5375L17.6556 18.7146L11.9123 24.4679C11.752 24.6282 11.5479 24.7607 11.2998 24.8654C11.052 24.9702 10.7999 25.0225 10.5436 25.0225C10.0927 25.0225 9.72356 24.8779 9.43606 24.5888C9.14884 24.2996 9.00523 23.9384 9.00523 23.505C9.00523 23.2659 9.05578 23.0242 9.15689 22.78C9.25801 22.5356 9.39537 22.3265 9.56898 22.1529L17.8031 13.9188L21.0961 17.1934C21.4016 17.4989 21.74 17.721 22.1111 17.8596C22.4819 17.9982 22.8879 18.0675 23.329 18.0675C24.1323 18.0675 24.7954 17.8109 25.3181 17.2975C25.8409 16.7845 26.1023 16.1165 26.1023 15.2938C26.1023 14.8979 26.0229 14.5125 25.864 14.1375C25.7051 13.7625 25.4665 13.4125 25.1481 13.0875L20.7348 8.67419L22.4506 6.9521C22.8159 6.59294 23.2581 6.31141 23.7773 6.10752C24.2968 5.90335 24.8161 5.80127 25.3352 5.80127C25.8866 5.80127 26.4251 5.90335 26.9506 6.10752C27.4762 6.31141 27.9249 6.59933 28.2969 6.97127L35.4344 14.1188C35.785 14.469 36.0623 14.8964 36.2665 15.4009C36.4704 15.905 36.5723 16.4638 36.5723 17.0771C36.5723 17.6327 36.4687 18.1577 36.2615 18.6521C36.0543 19.1468 35.7786 19.5663 35.4344 19.9104L21.3994 33.955C21.2199 34.1345 21.0094 34.2734 20.7677 34.3717C20.5263 34.47 20.2838 34.5192 20.0402 34.5192ZM7.73356 22.3054L5.65898 20.2309C5.18676 19.765 4.83092 19.2052 4.59148 18.5513C4.35231 17.8974 4.23273 17.2585 4.23273 16.6346C4.23273 15.9765 4.33953 15.3793 4.55314 14.8429C4.76675 14.3065 5.03926 13.8728 5.37064 13.5417L11.9315 6.97127C12.2904 6.6121 12.6899 6.32738 13.1302 6.1171C13.5702 5.90655 14.0498 5.80127 14.569 5.80127C15.1268 5.80127 15.6386 5.90016 16.1044 6.09794C16.5702 6.29544 16.9955 6.58655 17.3802 6.97127L24.3194 13.9104C24.513 14.104 24.6633 14.3295 24.7702 14.5867C24.8769 14.8442 24.9302 15.0788 24.9302 15.2904C24.9302 15.7663 24.7843 16.1606 24.4923 16.4734C24.2004 16.7861 23.8065 16.9425 23.3106 16.9425C23.0606 16.9425 22.8056 16.8892 22.5456 16.7825C22.2856 16.6761 22.0541 16.5143 21.8511 16.2971L17.7936 12.2459L7.73356 22.3054Z" fill="#171717"></path></g></svg>